<svg xmlns="http://www.w3.org/2000/svg" enable-background="new 0 0 48 48" viewBox="0 0 48 48"><path d="M46,23.9v-2.3c0-0.5-0.4-1-1-1l-11.4-0.3c-4.2-0.1-7.9,0-11.8,0.2l2.9-5.2c0.2-0.4,0.1-0.9-0.2-1.2c-0.4-0.3-0.9-0.3-1.3,0
		l-9.6,7.3c-0.2,0-0.4,0-0.5,0.1l-7,1.1l-0.5,0.1c-2.3,0.3-4.1,2-4.7,4.3c0,0,0,0,0,0c0,0,0,0,0,0c0,0,0,0,0,0l-0.2,0.7l0,0
		c-0.1,0.3-0.1,0.7-0.1,1v1c0,1.2,1,2.3,2.2,2.3h5.6c0.6,0,1-0.4,1-1c0-2.2,1.8-4.1,4.1-4.1s4.1,1.8,4.1,4.1c0,0.6,0.4,1,1,1l11.9,0
		c0.6,0,1-0.4,1-1c0-2.2,1.8-4,4.1-4c2.2,0,4,1.8,4.1,4c0,0.6,0.4,1,1,1h0l2.1,0c2.8,0,5-2.4,5-5.4v-0.8C47.5,24.8,46.9,24,46,23.9z
		 M20.7,18.5l-1.2,2.2c-0.6,0.1-1.3,0.1-2,0.2L20.7,18.5z M5.4,24.7c0,0,0,0.1,0,0.1c0,1.1-0.9,2-2,2c-0.2,0-0.3,0-0.4-0.1
		C3.5,25.7,4.3,24.9,5.4,24.7z M45.5,26.5c0,1.9-1.4,3.4-3,3.4l-1.2,0c-0.5-2.9-3-5-6-5c-3,0-5.5,2.2-6,5l-10.1,0
		c-0.5-2.9-3-5.1-6-5.1s-5.5,2.2-6,5.1H2.7c-0.1,0-0.2-0.1-0.2-0.3v-1c0,0,0,0,0,0c0,0,0.1,0,0.1,0c0.3,0.1,0.5,0.1,0.8,0.1
		c2.2,0,4-1.8,4-4c0-0.1,0-0.3,0-0.4l5.9-0.9c7.8-1,13.3-1.3,20.3-1.1L44,22.6v1.5c0,0.9,0.6,1.7,1.5,1.8V26.5z"/><path d="M16.5 30.9c0-1.8-1.4-3.2-3.2-3.2s-3.2 1.4-3.2 3.2 1.4 3.2 3.2 3.2S16.5 32.7 16.5 30.9zM12.1 30.9c0-.7.5-1.2 1.2-1.2s1.2.5 1.2 1.2c0 .7-.5 1.2-1.2 1.2S12.1 31.6 12.1 30.9zM38.5 30.9c0-1.8-1.4-3.2-3.2-3.2s-3.2 1.4-3.2 3.2 1.4 3.2 3.2 3.2S38.5 32.7 38.5 30.9zM34.1 30.9c0-.7.5-1.2 1.2-1.2s1.2.5 1.2 1.2c0 .7-.5 1.2-1.2 1.2S34.1 31.6 34.1 30.9z"/></svg>