<svg xmlns="http://www.w3.org/2000/svg" id="Layer_1" width="32" height="32" x="0" y="0" version="1.0" viewBox="0 0 32 32" xml:space="preserve"><path style="line-height:normal;text-indent:0;text-align:start;text-decoration-line:none;text-decoration-style:solid;text-decoration-color:#000;text-transform:none;block-progression:tb;white-space:normal;isolation:auto;mix-blend-mode:normal;solid-color:#000;solid-opacity:1" id="circle4282" fill="#000" fill-opacity="1" fill-rule="nonzero" stroke="none" stroke-dasharray="none" stroke-dashoffset="0" stroke-linecap="round" stroke-linejoin="round" stroke-miterlimit="4" stroke-opacity="1" stroke-width="1" d="M 2.2402344 6.4042969 C 2.0899557 6.412432 1.9420823 6.4346998 1.796875 6.4707031 C 1.2160458 6.6147164 0.69400301 6.978074 0.37304688 7.5292969 C -0.26886542 8.6317426 0.14037361 10.061431 1.2558594 10.710938 C 1.7635251 11.006531 2.2637115 11.033688 2.6152344 11.019531 C 2.9653477 11.005431 3.1470792 11.02833 3.0996094 11 L 3.1015625 11 L 8.3203125 14.375 L 27.384766 26.705078 L 27.347656 26.677734 C 28.062778 27.238226 28.886832 27.368782 29.589844 27.166016 C 30.292855 26.96325 30.872665 26.472055 31.283203 25.873047 C 31.693742 25.274039 31.943605 24.557923 31.931641 23.833984 C 31.919671 23.110045 31.612307 22.365531 30.947266 21.873047 C 30.769208 21.741196 30.569036 21.628433 30.347656 21.535156 L 30.384766 21.552734 L 10.212891 11.039062 L 4.7402344 8.1875 C 4.7865096 8.2144443 4.7038378 8.0956598 4.5488281 7.78125 C 4.3938184 7.4668402 4.1112215 7.0392388 3.5742188 6.7265625 C 3.1559115 6.4829981 2.6910704 6.3798916 2.2402344 6.4042969 z M 2.2949219 7.3984375 C 2.5537446 7.3857278 2.8235903 7.4470026 3.0722656 7.5917969 C 3.4191625 7.7937818 3.5353231 7.9892622 3.6503906 8.2226562 C 3.7654582 8.4560504 3.8238044 8.8105843 4.2363281 9.0507812 A 0.50005 0.50005 0 0 0 4.2578125 9.0625 L 9.2910156 11.6875 L 8.4160156 13.246094 L 3.625 10.148438 A 0.50005 0.50005 0 0 0 3.6054688 10.136719 C 3.1915071 9.8956856 2.855272 10.008291 2.5761719 10.019531 C 2.2970717 10.030771 2.0558291 10.019227 1.7578125 9.8457031 C 1.0946782 9.459585 0.87518319 8.6534478 1.2363281 8.0332031 C 1.4169006 7.7230807 1.710387 7.5166615 2.0410156 7.4355469 C 2.1236728 7.4152681 2.2086476 7.4026741 2.2949219 7.3984375 z M 26.822266 11.105469 C 24.836687 11.105469 23.216797 12.725359 23.216797 14.710938 C 23.216797 16.696516 24.836687 18.31836 26.822266 18.318359 C 28.807845 18.31836 30.427735 16.696516 30.427734 14.710938 C 30.427735 12.725359 28.807845 11.105469 26.822266 11.105469 z M 26.822266 12.105469 C 27.286591 12.105469 27.715317 12.234781 28.091797 12.445312 C 27.566828 14.100599 27.632835 15.616726 28.082031 16.982422 C 27.707745 17.189937 27.282685 17.318359 26.822266 17.318359 C 26.360894 17.318359 25.93537 17.188784 25.560547 16.980469 C 26.009446 15.61523 26.077275 14.099889 25.552734 12.445312 C 25.929215 12.234781 26.357941 12.105469 26.822266 12.105469 z M 10.263672 12.193359 L 29.921875 22.439453 A 0.50005 0.50005 0 0 0 29.958984 22.457031 C 30.113959 22.522331 30.242828 22.597217 30.351562 22.677734 C 30.761941 22.981632 30.923795 23.374902 30.931641 23.849609 C 30.939441 24.324317 30.760202 24.866244 30.457031 25.308594 C 30.153861 25.750944 29.734628 26.083326 29.3125 26.205078 C 28.890372 26.32683 28.464202 26.282008 27.964844 25.890625 A 0.50005 0.50005 0 0 0 27.927734 25.865234 L 9.3105469 13.826172 L 10.263672 12.193359 z M 24.726562 13.169922 C 25.014812 14.292939 24.971706 15.297384 24.722656 16.248047 C 24.407869 15.816981 24.216797 15.288505 24.216797 14.710938 C 24.216797 14.130836 24.409254 13.601608 24.726562 13.169922 z M 28.917969 13.169922 C 29.235277 13.601608 29.427734 14.130836 29.427734 14.710938 C 29.427734 15.289499 29.235698 15.818542 28.919922 16.25 C 28.670803 15.298806 28.629207 14.29365 28.917969 13.169922 z " baseline-shift="baseline" clip-rule="nonzero" color="#000" color-interpolation="sRGB" color-interpolation-filters="linearRGB" color-rendering="auto" direction="ltr" display="inline" enable-background="accumulate" font-family="sans-serif" font-size="medium" font-stretch="normal" font-style="normal" font-variant="normal" font-weight="400" image-rendering="auto" letter-spacing="normal" opacity="1" overflow="visible" shape-rendering="auto" text-anchor="start" text-decoration="none" text-rendering="auto" visibility="visible" word-spacing="normal" writing-mode="lr-tb"/></svg>