<svg xmlns="http://www.w3.org/2000/svg" enable-background="new 0 0 32 32" viewBox="0 0 32 32"><path d="M16,17c-4.411,0-8-3.589-8-8s3.589-8,8-8s8,3.589,8,8S20.411,17,16,17z M16,3c-3.309,0-6,2.691-6,6s2.691,6,6,6
		s6-2.691,6-6S19.309,3,16,3z"/><path d="M16.4,13.2H15.6c-1.145,0-2.17-0.767-2.493-1.864c-0.156-0.53,0.146-1.086,0.677-1.242
		c0.531-0.153,1.086,0.148,1.241,0.677c0.075,0.253,0.312,0.43,0.575,0.43H16.4c0.331,0,0.6-0.269,0.6-0.6S16.731,10,16.4,10H15.6
		C14.166,10,13,8.833,13,7.4s1.166-2.6,2.6-2.6H16.4c1.121,0,2.111,0.714,2.466,1.778c0.175,0.524-0.108,1.09-0.632,1.265
		c-0.529,0.177-1.09-0.109-1.265-0.632C16.888,6.965,16.659,6.8,16.4,6.8H15.6c-0.331,0-0.6,0.269-0.6,0.6S15.269,8,15.6,8H16.4
		c1.434,0,2.6,1.167,2.6,2.6S17.834,13.2,16.4,13.2z"/><path d="M16 6c-.271 0-.521-.11-.71-.29-.04-.05-.09-.1-.12-.16-.04-.05-.07-.11-.09-.17-.03-.06-.05-.12-.061-.18C15.01 5.13 15 5.07 15 5c0-.26.109-.52.29-.71.37-.37 1.04-.37 1.42 0C16.89 4.48 17 4.74 17 5c0 .07-.01.13-.021.2-.01.06-.029.12-.06.18-.021.06-.05.12-.09.17-.04.06-.08.11-.12.16C16.52 5.89 16.26 6 16 6zM16 14c-.271 0-.521-.11-.71-.29-.04-.05-.09-.1-.12-.16-.04-.05-.07-.11-.09-.17-.03-.06-.05-.12-.061-.18C15.01 13.13 15 13.07 15 13c0-.26.109-.52.29-.71.37-.37 1.04-.37 1.42 0C16.89 12.48 17 12.74 17 13c0 .07-.01.13-.021.2-.01.06-.029.12-.06.18-.021.06-.05.12-.09.17-.04.06-.08.11-.12.16C16.52 13.89 16.26 14 16 14zM18 31H2c-.553 0-1-.448-1-1v-9c0-.265.105-.52.293-.707C1.527 20.058 3.653 18 6 18c1.944 0 4.452 1.469 5.295 2H16c1.654 0 3 1.346 3 3 0 .177-.016.35-.045.519l7.891-3.288c.928-.387 1.981-.284 2.818.273C30.501 21.062 31 21.995 31 23c0 .355-.188.685-.496.864l-12 7C18.351 30.953 18.177 31 18 31zM3 29h14.729l11.14-6.498c-.075-.131-.182-.245-.314-.334-.283-.189-.627-.222-.939-.091l-9.23 3.846C18.263 25.974 18.132 26 18 26h-8c-.553 0-1-.448-1-1s.447-1 1-1h6c.552 0 1-.449 1-1s-.448-1-1-1h-5c-.197 0-.391-.059-.555-.167C9.68 21.323 7.387 20 6 20c-1.09 0-2.347.88-3 1.439V29z"/></svg>